<svg xmlns:inkscape="http://www.inkscape.org/namespaces/inkscape" xmlns:sodipodi="http://sodipodi.sourceforge.net/DTD/sodipodi-0.dtd" xmlns="http://www.w3.org/2000/svg" xmlns:svg="http://www.w3.org/2000/svg" id="svg2" width="631.20001" height="74.080002" viewBox="0 0 631.20001 74.080002" sodipodi:docname="Carvertise_Logo_White.eps"><defs id="defs6"></defs><g id="g8" inkscape:groupmode="layer" inkscape:label="ink_ext_XXXXXX" transform="matrix(1.3333333,0,0,-1.3333333,0,74.08)"><g id="g10" transform="scale(0.1)"><path d="m 726.277,171.336 78.09,117.406 h 11.059 L 828.359,171.336 Z M 712.07,377.867 458.816,4.30859 H 622.805 L 669.656,80.6172 H 837.551 L 846.664,4.30859 H 1014.56 L 943.625,377.867 H 712.07" style="fill:#22C55E;fill-opacity:1;fill-rule:nonzero;stroke:none" id="path12"></path><path d="m 1357.99,249.254 c -6.5,-29.891 -23.43,-42.156 -67.02,-42.156 h -54.67 l 20.18,84.847 h 53.36 c 35.79,0 50.11,-9.609 50.11,-29.351 0,-2.668 -0.66,-7.469 -1.96,-13.34 z m 11.07,128.613 H 1120.47 L 1031.96,4.30859 h 156.83 l 26.69,112.59341 h 37.09 L 1305.28,4.30859 h 188.07 l -89.8,145.68741 4.55,5.336 c 37.74,13.871 99.57,41.086 113.88,99.793 2.61,11.742 3.91,22.414 3.91,32.023 0,69.368 -66.38,90.719 -156.83,90.719" style="fill:#22C55E;fill-opacity:1;fill-rule:nonzero;stroke:none" id="path14"></path><path d="M 1987.16,555.566 1770.18,120.574 h -6.5 l -46.7,337.821 -12.77,97.171 H 832.508 L 765.813,458.395 H 1556.7 L 1632.87,4.35938 h 235.4 L 2111.05,458.395 h 2466.48 l 24.42,97.171 H 1987.16" style="fill:#22C55E;fill-opacity:1;fill-rule:nonzero;stroke:none" id="path16"></path><path d="m 2480.87,287.711 21.48,90.195 H 2106.59 L 2018.08,4.34766 h 394.74 l 21.47,91.25394 h -238.55 l 13.01,54.9684 h 137.24 l 20.83,88.59 h -137.25 l 11.72,48.551 h 239.58" style="fill:#22C55E;fill-opacity:1;fill-rule:nonzero;stroke:none" id="path18"></path><path d="m 2778.75,249.266 c -6.51,-29.891 -23.42,-42.157 -67.02,-42.157 h -54.66 l 20.17,84.852 h 53.36 c 35.79,0 50.11,-9.613 50.11,-29.356 0,-2.667 -0.65,-7.468 -1.96,-13.339 z m 11.07,128.613 H 2541.23 L 2452.72,4.31641 h 156.84 l 26.69,112.59759 h 37.09 L 2726.05,4.31641 h 188.07 l -89.82,145.69159 4.56,5.336 c 37.75,13.871 99.57,41.086 113.88,99.793 2.6,11.742 3.91,22.414 3.91,32.023 0,69.367 -66.38,90.719 -156.83,90.719" style="fill:#22C55E;fill-opacity:1;fill-rule:nonzero;stroke:none" id="path20"></path><path d="m 3423.77,374.754 h -428.85 l -22.13,-93.391 h 135.36 L 3041.78,1.19141 h 158.13 l 66.38,280.17159 h 135.36 l 22.12,93.391" style="fill:#22C55E;fill-opacity:1;fill-rule:nonzero;stroke:none" id="path22"></path><path d="m 3371.48,3.78516 h 156.84 L 3616.83,377.348 H 3459.99 L 3371.48,3.78516" style="fill:#22C55E;fill-opacity:1;fill-rule:nonzero;stroke:none" id="path24"></path><path d="m 3880.2,298.309 c 11.72,0 73.54,-3.727 136.01,-16.004 l 22.77,94.453 c -41.65,9.074 -119.08,12.277 -156.84,12.277 -64.42,0 -224.5,-5.871 -254.43,-132.347 -2.6,-9.61 -3.26,-19.208 -3.26,-27.223 0,-59.231 58.57,-76.844 126.9,-87.516 30.58,-4.797 96.96,3.203 96.96,-19.746 0,-21.875 -44.25,-30.41 -83.95,-30.41 -55.32,0 -142.52,14.941 -163.34,19.742 L 3578.25,14.9453 C 3615.33,9.60938 3682.37,0 3755.25,0 c 102.18,0 230.37,21.3516 258.36,139.82 1.94,8.535 3.25,16.539 3.25,24.008 0,68.844 -85.26,80.582 -151.64,89.121 -35.78,4.801 -71.57,8.004 -71.57,17.614 0,18.671 44.24,27.746 86.55,27.746" style="fill:#22C55E;fill-opacity:1;fill-rule:nonzero;stroke:none" id="path26"></path><path d="m 4014.04,4.26953 h 468.4 l 18.99,91.25777 H 4191.7 l 13.01,54.9687 h 140.25 l 18.27,88.59 h -137.7 l 11.72,48.551 h 302.63 l 19.23,90.195 H 4102.55 L 4014.04,4.26953" style="fill:#22C55E;fill-opacity:1;fill-rule:nonzero;stroke:none" id="path28"></path><path d="M 496.145,148.523 395.441,5.78516 c 0,0 30.645,0 -153.144,0 C 75.3984,5.78516 -19.9219,142.133 3.51563,285.793 28.4141,438.379 139.637,553.871 322.324,553.871 c 169.281,0 448.387,0.27 448.387,0.27 L 672.527,411.371 H 355.32 c -89.929,0 -149.816,-41.547 -168.707,-125.949 -18.484,-82.582 25.676,-136.703 110.742,-136.703 l 198.79,-0.196" style="fill:#22C55E;fill-opacity:1;fill-rule:nonzero;stroke:none" id="path30"></path><path d="m 4693.34,506.125 c 1.89,0.129 3.56,0.465 5.01,1.039 1.45,0.563 2.61,1.473 3.51,2.731 0.88,1.257 1.32,2.98 1.32,5.171 0,1.872 -0.34,3.368 -1.03,4.504 -0.68,1.141 -1.61,2.051 -2.77,2.743 -1.17,0.683 -2.48,1.148 -3.93,1.398 -1.44,0.238 -2.98,0.367 -4.58,0.367 h -11.71 v -18.133 h 8.45 c 1.92,0 3.84,0.059 5.73,0.18 z m -20.59,-28.895 v 52.321 h 19.93 c 5.88,0 10.16,-1.238 12.86,-3.711 2.7,-2.477 4.04,-6.07 4.04,-10.774 0,-2.269 -0.34,-4.257 -1.02,-5.961 -0.69,-1.703 -1.63,-3.14 -2.84,-4.32 -1.21,-1.176 -2.59,-2.109 -4.17,-2.789 -1.57,-0.695 -3.24,-1.199 -5.01,-1.527 L 4712,477.23 h -7.49 l -14.61,23.239 h -10.74 V 477.23 Z m 1.15,61.926 c -4.63,-2.019 -8.64,-4.781 -12.02,-8.265 -3.38,-3.489 -6.01,-7.586 -7.9,-12.289 -1.9,-4.704 -2.84,-9.774 -2.84,-15.211 0,-5.438 0.94,-10.508 2.84,-15.211 1.89,-4.703 4.52,-8.801 7.9,-12.289 3.38,-3.493 7.39,-6.246 12.02,-8.278 4.63,-2.031 9.68,-3.039 15.15,-3.039 5.4,0 10.41,1.008 15.04,3.039 4.63,2.032 8.64,4.785 12.02,8.278 3.38,3.488 6.03,7.586 7.97,12.289 1.92,4.703 2.9,9.773 2.9,15.211 0,5.437 -0.98,10.507 -2.9,15.211 -1.94,4.703 -4.59,8.8 -7.97,12.289 -3.38,3.484 -7.39,6.246 -12.02,8.265 -4.63,2.032 -9.64,3.051 -15.04,3.051 -5.47,0 -10.52,-1.019 -15.15,-3.051 z m 32.91,6.032 c 5.47,-2.317 10.22,-5.516 14.25,-9.614 4.02,-4.101 7.18,-8.902 9.47,-14.418 2.3,-5.515 3.44,-11.437 3.44,-17.765 0,-6.407 -1.14,-12.348 -3.44,-17.825 -2.29,-5.476 -5.45,-10.25 -9.47,-14.296 -4.03,-4.063 -8.78,-7.243 -14.25,-9.559 -5.48,-2.305 -11.4,-3.465 -17.76,-3.465 -6.35,0 -12.27,1.16 -17.74,3.465 -5.48,2.316 -10.23,5.496 -14.25,9.559 -4.03,4.046 -7.19,8.82 -9.49,14.296 -2.29,5.477 -3.44,11.418 -3.44,17.825 0,6.328 1.15,12.25 3.44,17.765 2.3,5.516 5.46,10.317 9.49,14.418 4.02,4.098 8.77,7.297 14.25,9.614 5.47,2.308 11.39,3.464 17.74,3.464 6.36,0 12.28,-1.156 17.76,-3.464" style="fill:#22C55E;fill-opacity:1;fill-rule:nonzero;stroke:none" id="path32"></path></g></g></svg>